# xmcd CD database file
#
# Track frame offsets:
#	150
#	37683
#	61959
#	78754
#	115633
#	141425
#	161869
#	175937
#	210909
#
# Disc length: 3207 seconds
#
# Revision: 0
# Processed by: cddbd v1.5.1PL0 Copyright (c) Steve Scherf et al.
# Submitted via: CDex 1.51
#
DISCID=6b0c8509
DTITLE=Go - Go - Fightmasters
DYEAR=2005
DGENRE=Jazz
TTITLE0=Buffy Is Dead
TTITLE1=Dream Song
TTITLE2=Go-Go Fightmaster
TTITLE3=No Memory
TTITLE4=Nets In Space
TTITLE5=Mistrophy
TTITLE6=House Carpenter
TTITLE7=Mac Attack
TTITLE8=The Perfect Man
EXTD=YEAR: 2005
EXTT0=
EXTT1=
EXTT2=
EXTT3=
EXTT4=
EXTT5=
EXTT6=
EXTT7=
EXTT8=
PLAYORDER=
